<?xml version="1.0" encoding="utf-8"?>
<!-- Generator: Adobe Illustrator 27.5.0, SVG Export Plug-In . SVG Version: 6.00 Build 0)  -->
<svg version="1.1" xmlns="http://www.w3.org/2000/svg" xmlns:xlink="http://www.w3.org/1999/xlink" x="0px" y="0px"
	 viewBox="0 0 500 500" style="enable-background:new 0 0 500 500;" xml:space="preserve">
<g id="BACKGROUND">
	<rect y="0.001" style="fill-rule:evenodd;clip-rule:evenodd;fill:#AED2C8;" width="500" height="499.998"/>
</g>
<g id="OBJECTS">
	<g>
		<g>
			<g>
				<g>
					<path style="fill-rule:evenodd;clip-rule:evenodd;fill:#D4786A;" d="M324.623,112.546
						c28.959-1.161-49.403-36.686-56.594-39.775c-15.764,3.859-29.775,3.859-45.54,0c-7.189,3.089-85.551,38.614-56.592,39.775
						C218.386,114.65,272.134,114.65,324.623,112.546z"/>
					<path style="fill-rule:evenodd;clip-rule:evenodd;fill:#E0A597;" d="M235.68,106.272c0.899-0.004,1.631,0.723,1.634,1.621
						c0.004,0.899-0.722,1.63-1.621,1.634c-6.645,0.041-12.726,0.091-18.242,0.136c-32.009,0.26-45.347,0.369-47.253-2.767
						c-1.524-2.509,1.807-5.152,8.198-9.035c3.367-2.046,8.268-4.864,15.365-8.33c7.1-3.468,16.479-7.63,28.88-12.409
						c0.228-0.087,0.461-0.121,0.69-0.106v-0.002c0.912,0.06,1.874,0.144,3.038,0.245c7.684,0.671,23.851,2.081,38.668-0.761
						c0.885-0.17,1.739,0.411,1.908,1.295c0.169,0.885-0.411,1.739-1.296,1.909c-15.279,2.931-31.738,1.494-39.561,0.812
						c-1.073-0.094-1.99-0.174-2.617-0.221c-12.065,4.66-21.267,8.749-28.28,12.174c-7.085,3.46-11.86,6.202-15.111,8.176
						c-4.61,2.801-7.194,4.41-7.099,4.566c0.942,1.551,13.736,1.447,44.442,1.197C222.922,106.364,228.983,106.314,235.68,106.272z"
						/>
				</g>
				<path style="fill-rule:evenodd;clip-rule:evenodd;fill:#F6DF86;" d="M339.219,144.363c8.791-2.172,29.345-2.821,26.731,30.202
					c-3.186,40.277-25.476,44.649-36.537,44.769c-6.527,0.071-5.426-10.963,0.484-12.016c26.635-4.748,26.315-38.98,21.541-46.763
					c-1.378-2.247-7.904-2.77-12.348-2.911C330.237,157.364,331.688,146.223,339.219,144.363z"/>
				<path style="fill-rule:evenodd;clip-rule:evenodd;fill:#E6B57D;" d="M338.442,154.208c-0.877,0.205-1.755-0.341-1.959-1.22
					c-0.205-0.878,0.342-1.755,1.219-1.959c1.372-0.322,3.39-0.585,5.632-0.603c1.77-0.014,3.68,0.128,5.52,0.516
					c5.264,1.112,8.773,4.699,10.728,9.679c1.75,4.459,2.224,10.051,1.569,15.929c-0.648,5.803-2.396,11.917-5.101,17.507
					c-5.085,10.512-13.572,19.211-24.549,20.696c-0.892,0.12-1.713-0.506-1.833-1.398c-0.119-0.892,0.508-1.712,1.4-1.832
					c9.749-1.319,17.392-9.263,22.047-18.883c2.542-5.255,4.186-11,4.792-16.448c0.599-5.373,0.189-10.426-1.363-14.384
					c-1.559-3.971-4.296-6.817-8.353-7.674c-1.612-0.341-3.289-0.464-4.844-0.453C341.398,153.697,339.641,153.927,338.442,154.208z
					"/>
				<g>
					<path style="fill-rule:evenodd;clip-rule:evenodd;fill:#FFFFFF;" d="M332.498,128.163c0,0,8.959-11.869-9.416-11.049
						c-44.545,1.984-111.428,1.984-155.966,0c-18.376-0.819-9.417,11.049-9.417,11.049c1.538,42.854,14.798,118.76,20.371,128.752
						c5.573,9.992,21.715,20.946,26.519,23.443c14.44,7.511,67.112,7.233,81.021,0c4.804-2.497,20.946-13.451,26.52-23.443
						C317.701,246.922,330.961,171.016,332.498,128.163z"/>
					<path style="fill-rule:evenodd;clip-rule:evenodd;fill:#D6E7DE;" d="M169.366,176.085c0.085,0.895-0.573,1.69-1.468,1.775
						c-0.895,0.084-1.69-0.573-1.775-1.469c-0.451-4.778-1.768-19.181-2.477-31.222c-0.406-6.899-0.616-13.082-0.357-16.389
						l-0.035,0.05c-0.259-0.176-0.544-0.369-0.818-0.615c-0.576-0.519-0.98-1.175-1.204-1.784c-0.348-0.946-0.279-1.949,0.179-2.569
						c1.021-1.387,4.674-1.407,8.844-1.428c1.014-0.005,2.063-0.011,3.126-0.032c4.405-0.087,11.436-0.013,17.8,0.151
						c6.181,0.159,11.763,0.403,13.766,0.666c0.893,0.116,1.521,0.934,1.405,1.826c-0.116,0.892-0.934,1.521-1.826,1.404
						c-1.898-0.25-7.349-0.485-13.422-0.642c-6.329-0.162-13.306-0.237-17.66-0.15c-1.044,0.021-2.129,0.027-3.176,0.032
						c-2.466,0.014-4.704,0.025-5.693,0.059l0.044,0.042c0.158,0.143,0.317,0.25,0.46,0.348c0.903,0.612,1.607,1.089,1.484,2.553
						l-0.004,0.053c-0.283,3.006-0.073,9.218,0.34,16.234C167.613,157.063,168.919,171.35,169.366,176.085L169.366,176.085z
						 M163.289,128.779l0.034-0.382c0.024-0.276-0.047,0.376-0.066,0.429L163.289,128.779z"/>
					<path style="fill-rule:evenodd;clip-rule:evenodd;fill:#D6E7DE;" d="M325.583,132.483c0.066-0.899,0.853-1.65,1.754-1.679
						c0.902-0.028,1.58,0.678,1.513,1.577c-0.004,0.053-6.36,68.971-12.933,97.802c-0.2,0.895-1.08,1.535-1.965,1.43
						c-0.883-0.105-1.438-0.918-1.236-1.813C319.245,201.156,325.579,132.535,325.583,132.483z"/>
				</g>
				<g>
					<path style="fill-rule:evenodd;clip-rule:evenodd;fill:#F6DF86;" d="M245.223,71.621c-1.581,0.015-16.967-0.802-18.653-2.019
						c-1.685-1.217,2.018-7.783,10.089-10.762c8.031-2.964-0.394-13.537,8.611-13.357c9.006-0.18,0.581,10.394,8.611,13.357
						c8.072,2.979,11.774,9.545,10.089,10.762C262.286,70.818,246.803,71.635,245.223,71.621z"/>
					<path style="fill-rule:evenodd;clip-rule:evenodd;fill:#FFFCED;" d="M239.151,59.259c0.835-0.335,1.784,0.071,2.119,0.906
						c0.335,0.836-1.8,2.016-2.636,2.35c-0.035,0.014-14.425,6.045,11.872,3.367c0.9-0.049,1.668,0.64,1.717,1.539
						c0.049,0.899-0.64,1.668-1.539,1.717c-18.206,1.048-21.689-0.604-21.159-2.84C230.233,63.309,239.101,59.279,239.151,59.259z"
						/>
				</g>
				<g>
					<path style="fill-rule:evenodd;clip-rule:evenodd;fill:#F6DF86;" d="M203.313,297.464c-8.072-4.612-4.996-16.718-2.69-16.142
						c2.272,0.567,5.663,6.171,44.9,7.257c39.236-1.086,42.628-6.69,44.901-7.257c2.306-0.576,5.38,11.529-2.69,16.142
						C270.724,307.183,220.341,307.195,203.313,297.464z"/>
					<path style="fill-rule:evenodd;clip-rule:evenodd;fill:#FFFCED;" d="M201.229,288.745c0.004-0.898,0.735-1.624,1.635-1.621
						c0.899,0.004,1.624,0.735,1.621,1.635c-0.002,0.326,0.052,0.646,0.159,0.956c0.959,2.81,5.896,4.823,12.64,6.199
						c7.183,1.467,16.259,2.097,24.94,2.151c12.099,0.076,23.342-0.952,27.544-2.388c0.854-0.289,1.779,0.168,2.068,1.021
						c0.289,0.853-0.169,1.778-1.021,2.068c-4.484,1.532-16.167,2.633-28.604,2.554c-8.875-0.057-18.18-0.705-25.578-2.215
						c-7.837-1.599-13.682-4.257-15.078-8.345C201.336,290.125,201.225,289.452,201.229,288.745z"/>
				</g>
				<g>
					<path style="fill-rule:evenodd;clip-rule:evenodd;fill:#D4786A;" d="M204.367,302.862c34.957,8.443,48.571,8.443,83.529,0
						c5.774-1.396,54.336,113.405,34.079,130.346c-29.756,24.886-129.387,23.557-154.307-2.476
						C153.551,415.986,197.181,301.126,204.367,302.862z"/>
					<path style="fill-rule:evenodd;clip-rule:evenodd;fill:#F6DF86;" d="M178.563,408.704c0.773-7.491,3.118-23.695,12.316-23.815
						c16.951-0.222,84.507-0.229,104.927-0.022c11.221,0.112,13.2,13.076,14.31,23.837
						C314.633,452.521,174.045,452.521,178.563,408.704z"/>
					<path style="fill-rule:evenodd;clip-rule:evenodd;fill:#AED2C8;" d="M189.566,409.555c0.399-3.762,3.917-19.123,8.42-19.225
						c10.805-0.24,80.92-0.429,92.492-0.05c4.681,0.152,8.221,15.371,8.635,19.274C302.875,444.977,185.804,444.977,189.566,409.555
						z"/>
					<g>
						<path style="fill-rule:evenodd;clip-rule:evenodd;fill:#F6DF86;" d="M191.697,369.883
							c-2.707-5.608,9.777-53.713,20.517-53.797c10.577-0.083,53.586-0.085,65.721-0.007c12.606,0.082,23.813,48.714,21.357,53.804
							C292.933,383.065,198.057,383.065,191.697,369.883z"/>
						<path style="fill-rule:evenodd;clip-rule:evenodd;fill:#FDF5D3;" d="M211.936,322.751c0.462-0.772,1.462-1.023,2.234-0.561
							c0.773,0.462,1.024,1.463,0.561,2.234c-0.054,0.09-18.804,31.08-11.151,41.559c2.1,2.878,10.545,5.403,24.159,6.42
							c11.729,0.875,27.095,0.537,45.346-1.772c0.893-0.113,1.707,0.518,1.819,1.41c0.113,0.893-0.519,1.707-1.41,1.819
							c-18.514,2.344-34.101,2.686-45.998,1.799c-14.598-1.091-23.915-4.159-26.545-7.76
							C192.012,355.657,211.88,322.846,211.936,322.751z"/>
					</g>
					<g>
						
							<path style="fill-rule:evenodd;clip-rule:evenodd;fill:#D68180;stroke:#D68180;stroke-width:5.6693;stroke-miterlimit:2.6131;" d="
							M221.035,404.232c0.203,0.398,0.38,0.832,0.523,1.304c1.271,4.196-0.368,11.12-4.141,13.579
							c-3.95,2.572-14.674-0.494-16.694-5.086c-1.751-3.982,0.938-12.695,4.399-14.73
							C208.231,397.473,218.957,400.167,221.035,404.232z"/>
						
							<path style="fill-rule:evenodd;clip-rule:evenodd;fill:#F6DF86;stroke:#F6DF86;stroke-width:5.6693;stroke-miterlimit:2.6131;" d="
							M236.395,404.389c-0.32,0.313-0.626,0.667-0.913,1.067c-2.548,3.568-3.213,10.653-0.428,14.189
							c2.918,3.703,14.06,4.234,17.444,0.531c2.935-3.212,3.178-12.327,0.552-15.362
							C250.69,402.087,239.665,401.204,236.395,404.389z"/>
						
							<path style="fill-rule:evenodd;clip-rule:evenodd;fill:#D68180;stroke:#D68180;stroke-width:5.6693;stroke-miterlimit:2.6131;" d="
							M284.473,418.116c0.31-0.323,0.603-0.688,0.875-1.099c2.423-3.654,2.842-10.758-0.065-14.195
							c-3.045-3.6-14.198-3.742-17.452,0.076c-2.821,3.313-2.746,12.43-0.017,15.372
							C270.267,420.914,281.315,421.412,284.473,418.116z"/>
						<path style="fill-rule:evenodd;clip-rule:evenodd;fill:#F1D8D1;" d="M203.678,403.311c0.341-0.493,1.017-0.617,1.511-0.276
							c0.493,0.341,0.617,1.018,0.276,1.51c-0.022,0.032-7.664,10.892,6.101,11.903c0.599,0.043,1.051,0.563,1.008,1.162
							c-0.042,0.6-0.563,1.051-1.162,1.009C193.817,417.325,203.65,403.352,203.678,403.311z"/>
						<path style="fill-rule:evenodd;clip-rule:evenodd;fill:#FFFCED;" d="M235.902,407.388c0.266-0.538,0.917-0.759,1.455-0.493
							c0.539,0.266,0.76,0.917,0.494,1.455c-0.018,0.033-6.035,11.875,7.741,10.914c0.599-0.041,1.117,0.413,1.157,1.012
							c0.04,0.6-0.414,1.118-1.013,1.158C228.143,422.663,235.88,407.432,235.902,407.388z"/>
						<path style="fill-rule:evenodd;clip-rule:evenodd;fill:#F1D8D1;" d="M268.715,405.107c0.257-0.543,0.904-0.775,1.447-0.518
							c0.543,0.256,0.775,0.904,0.52,1.446c-0.017,0.034-5.831,11.975,7.921,10.78c0.6-0.052,1.127,0.392,1.179,0.991
							c0.053,0.6-0.392,1.127-0.991,1.179C261.215,420.513,268.694,405.151,268.715,405.107z"/>
					</g>
				</g>
				<g>
					
						<path style="fill-rule:evenodd;clip-rule:evenodd;fill:#95B34C;stroke:#95B34C;stroke-width:0.216;stroke-miterlimit:22.9256;" d="
						M198.879,447.729c0.449,0.15,0.733,0.466,0.861,0.924c0.149,0.538-0.026,1.357-0.462,2.316h-0.004
						c-0.356,0.783-0.901,1.739-1.58,2.749c-2.382,3.547-6.523,7.865-10.312,8.068c-0.8,0.042-2.375-0.248-3.741-0.838
						c-1.069-0.462-2.065-1.125-2.605-1.993c-1.629-2.614-2.308-6.627-2.28-9.881c0.012-1.418,0.157-2.71,0.415-3.699
						c0.327-1.252,0.892-2.135,1.68-2.427l0.001,0.002c0.316-0.116,0.645-0.14,0.985-0.064c2.7,0.608,5.458,1.322,8.188,2.098
						C193.015,445.835,196.006,446.77,198.879,447.729z"/>
					<path style="fill-rule:evenodd;clip-rule:evenodd;fill:#F2F7F1;" d="M181.593,446.864c0.103-0.593,0.668-0.989,1.259-0.886
						c0.593,0.104,0.989,0.667,0.886,1.26c-0.004,0.023-1.491,8.136,2.576,9.907c0.549,0.239,0.801,0.88,0.561,1.429
						c-0.24,0.551-0.879,0.802-1.43,0.563C179.787,456.673,181.587,446.892,181.593,446.864z"/>
				</g>
				<g>
					<path style="fill-rule:evenodd;clip-rule:evenodd;fill:#95B34C;" d="M295.144,448.377c0.128-0.459,0.412-0.774,0.861-0.924
						c2.872-0.961,5.863-1.895,8.854-2.744c2.73-0.775,5.488-1.49,8.189-2.098c0.34-0.077,0.668-0.053,0.984,0.064l0.001-0.002
						c0.789,0.292,1.353,1.175,1.681,2.427c0.258,0.989,0.403,2.28,0.415,3.698c0.027,3.254-0.651,7.267-2.28,9.882
						c-0.54,0.868-1.535,1.531-2.605,1.993c-1.365,0.59-2.941,0.88-3.741,0.836c-3.787-0.201-7.929-4.52-10.312-8.067
						c-0.679-1.01-1.223-1.965-1.579-2.749h-0.005C295.17,449.734,294.995,448.914,295.144,448.377z"/>
					<path style="fill-rule:evenodd;clip-rule:evenodd;fill:#F2F7F1;" d="M299.997,450.593c-0.204-0.565,0.088-1.188,0.651-1.392
						c0.564-0.205,1.188,0.087,1.392,0.651c0.011,0.027,3.431,9.64,8.823,6.75c0.528-0.281,1.186-0.081,1.468,0.448
						c0.282,0.527,0.082,1.185-0.447,1.468C304.261,462.603,300.011,450.627,299.997,450.593z"/>
				</g>
				<g>
					<g>
						<path style="fill-rule:evenodd;clip-rule:evenodd;fill:#EDC134;" d="M240.931,123.42c16.78-5.785,39.06,3.959,49.059,16.144
							c10,12.184,1.215,42.369-17.46,52.104c-18.674,9.735-38.819,1.797-48.554-16.876
							C214.24,156.118,224.149,129.205,240.931,123.42z"/>
						<path style="fill-rule:evenodd;clip-rule:evenodd;fill:#DEAC2F;" d="M284.686,143.246c1.453,1.688,2.509,3.628,3.204,5.738
							c4.123,12.501-4.39,30.939-17.766,37.939c-15.632,8.181-32.521,1.556-40.702-14.077
							C212.344,140.208,253.274,106.745,284.686,143.246z"/>
						<path style="fill-rule:evenodd;clip-rule:evenodd;fill:#F8EBD2;" d="M283.103,144.146c1.37,1.591,2.364,3.42,3.021,5.408
							c3.885,11.782-4.137,29.159-16.744,35.756c-14.733,7.71-30.65,1.466-38.36-13.267
							C214.923,141.283,253.498,109.745,283.103,144.146z"/>
						<path style="fill-rule:evenodd;clip-rule:evenodd;fill:#EDC134;" d="M256.219,154.436c2.23-0.228,4.238,1.535,4.483,3.938
							c0.245,2.402-1.364,4.535-3.595,4.762c-2.231,0.228-4.238-1.535-4.483-3.937C252.379,156.796,253.988,154.664,256.219,154.436
							z"/>
						<path style="fill-rule:evenodd;clip-rule:evenodd;fill:#EDC134;" d="M257.563,152.594c1.654-1.5,5.232-14.748,2.133-19.643
							c-1.27-2.008-12.626-1.064-13.075,1.793c-0.886,5.648,5.443,16.713,7.043,18.447
							C253.79,153.33,257.488,152.661,257.563,152.594z"/>
						<path style="fill-rule:evenodd;clip-rule:evenodd;fill:#EDC134;" d="M262.184,155.863c2.307-0.021,14.371-6.141,15.869-11.688
							c0.619-2.295-7.763-10.016-10.17-8.412c-4.75,3.167-8.607,15.28-8.811,17.659
							C259.028,153.919,262.152,155.863,262.184,155.863z"/>
						<path style="fill-rule:evenodd;clip-rule:evenodd;fill:#EDC134;" d="M252.483,154.068
							c-0.106-2.201-8.218-13.321-13.985-13.969c-2.362-0.265-8.733,9.182-6.785,11.32c3.913,4.293,16.843,6.277,18.9,6.043
							C250.623,157.462,252.491,154.242,252.483,154.068z"/>
						<path style="fill-rule:evenodd;clip-rule:evenodd;fill:#EDC134;" d="M250.564,159.352c-1.879-1.463-15.177-3.58-19.713,0.064
							c-1.853,1.489,0.361,12.667,3.251,12.791c5.795,0.249,16.295-7.506,17.601-9.145
							C252.059,162.617,250.831,159.559,250.564,159.352z"/>
						<path style="fill-rule:evenodd;clip-rule:evenodd;fill:#EDC134;" d="M262.572,160.878c1.449,2.066,13.23,8.259,18.598,6.368
							c2.242-0.789,3.864-12.068,1.18-13.144c-5.453-2.186-18.184,1.771-19.701,2.825
							C262.615,156.95,262.464,160.724,262.572,160.878z"/>
						<path style="fill-rule:evenodd;clip-rule:evenodd;fill:#EDC134;" d="M263.741,183.352c1.905,1.42,12.172-3.523,11.568-6.351
							c-0.812-3.803-11.882-15.716-13.626-14.722c-0.652,0.373-2.869,1.759-3.047,2.077
							C257.206,166.917,260.153,180.677,263.741,183.352z"/>
						<path style="fill-rule:evenodd;clip-rule:evenodd;fill:#EDC134;" d="M253.753,163.727c-1.86,0.026-12.699,9.164-12.841,15.132
							c-0.057,2.376,9.914,7.893,11.872,5.765c4.179-4.54,4.868-18.991,4.27-19.603
							C257.041,165.009,253.762,163.726,253.753,163.727z"/>
						<path style="fill-rule:evenodd;clip-rule:evenodd;fill:#BA7427;" d="M248.098,160.109c-0.167,0.425-0.109,0.701,0.06,0.958
							c0.48,0.734,2.528,0.561,3.177-0.108C252.034,160.239,248.689,158.612,248.098,160.109z"/>
						<path style="fill-rule:evenodd;clip-rule:evenodd;fill:#BA7427;" d="M246.049,149.536c-0.339,0.306-0.41,0.579-0.375,0.884
							c0.103,0.871,2.014,1.629,2.893,1.319C249.514,151.405,247.245,148.458,246.049,149.536z"/>
						<path style="fill-rule:evenodd;clip-rule:evenodd;fill:#BA7427;" d="M262.867,154.871c-0.146-0.433-0.368-0.606-0.663-0.695
							c-0.839-0.251-2.294,1.201-2.358,2.131C259.777,157.309,263.383,156.395,262.867,154.871z"/>
						<path style="fill-rule:evenodd;clip-rule:evenodd;fill:#BA7427;" d="M261.349,161.314c0.425-0.168,0.587-0.398,0.66-0.697
							c0.211-0.852-1.313-2.232-2.245-2.251C258.76,158.347,259.851,161.903,261.349,161.314z"/>
					</g>
					<g>
						<path style="fill-rule:evenodd;clip-rule:evenodd;fill:#BA7427;" d="M277.318,192.808c-0.099,0-0.025-3.703,1.749-8.165
							c3.985-10.025,12.573-25.496,16.857-20.941c1.563,1.662-0.738,3.563-5.204,9.541c-2.904,3.888-8.122,12.496-9.01,13.645
							C279.629,189.585,279.064,189.948,277.318,192.808z"/>
						<path style="fill-rule:evenodd;clip-rule:evenodd;fill:#C64919;" d="M280.636,184.126
							c-2.983-3.791-7.147-11.461-14.702-15.189c-10.061-4.965-26.04-3.822-31.281,26.749c-8.516,49.688,43.79,72.992,72.545,29.381
							c17.965-27.247,6.438-40.539-6.458-42.544C293.037,181.325,284.132,183.625,280.636,184.126z"/>
						<path style="fill-rule:evenodd;clip-rule:evenodd;fill:#CE603D;" d="M280.636,184.126c-2.399-3.049-5.565-8.609-10.642-12.607
							c-0.294,0.059-0.589,0.112-0.888,0.155c-0.384-0.488-0.788-1.04-1.217-1.641c-0.625-0.393-1.276-0.76-1.955-1.095
							c-10.061-4.965-26.04-3.822-31.281,26.749c-2.09,12.201-0.509,22.805,3.485,31.224c17.494,13.453,45.301,11.11,61.45-16.14
							c7.064-11.92,6.423-21.296,2.417-28.012c-0.419-0.09-0.841-0.169-1.265-0.235
							C293.037,181.325,284.132,183.625,280.636,184.126z"/>
						<path style="fill-rule:evenodd;clip-rule:evenodd;fill:#7C963B;" d="M314.039,181.603c2.1-0.511,4.221-1.498,5.758-3.059
							c1.534-1.559,2.486-3.693,2.482-5.35c-0.028-11.004-29.494-6.043-33.28,1.471
							C286.383,179.855,304.852,183.842,314.039,181.603z"/>
						<path style="fill-rule:evenodd;clip-rule:evenodd;fill:#95B34C;" d="M320.978,173.496c0.289,0.082,0.457,0.384,0.375,0.673
							c-0.083,0.288-0.384,0.456-0.674,0.374c-0.025-0.007-8.755-2.632-29.621,1.679c-0.294,0.06-0.581-0.129-0.641-0.423
							c-0.06-0.294,0.13-0.58,0.423-0.64C311.977,170.792,320.951,173.489,320.978,173.496z"/>
						<path style="fill-rule:evenodd;clip-rule:evenodd;fill:#95B34C;" d="M294.718,175.463c-0.211,0.212-0.555,0.213-0.767,0.002
							c-0.214-0.212-0.215-0.556-0.003-0.768l3.692-3.731c0.213-0.212,0.556-0.213,0.769-0.002c0.213,0.211,0.214,0.556,0.002,0.769
							L294.718,175.463z"/>
						<path style="fill-rule:evenodd;clip-rule:evenodd;fill:#95B34C;" d="M296.943,175.189c-0.19-0.233-0.154-0.575,0.078-0.764
							c0.232-0.189,0.575-0.154,0.764,0.079l4.62,5.666c0.189,0.233,0.154,0.575-0.079,0.764c-0.232,0.189-0.574,0.154-0.764-0.078
							L296.943,175.189z"/>
						<path style="fill-rule:evenodd;clip-rule:evenodd;fill:#95B34C;" d="M302.798,174.144c-0.188,0.232-0.531,0.268-0.764,0.079
							c-0.232-0.189-0.268-0.531-0.079-0.764l3.767-4.647c0.189-0.232,0.531-0.268,0.764-0.079c0.232,0.189,0.268,0.531,0.078,0.764
							L302.798,174.144z"/>
						<path style="fill-rule:evenodd;clip-rule:evenodd;fill:#95B34C;" d="M305.518,174.136c-0.196-0.227-0.171-0.57,0.056-0.766
							c0.228-0.196,0.569-0.172,0.767,0.055l5.521,6.352c0.195,0.227,0.171,0.569-0.056,0.766c-0.227,0.196-0.57,0.171-0.766-0.056
							L305.518,174.136z"/>
						<path style="fill-rule:evenodd;clip-rule:evenodd;fill:#95B34C;" d="M313.007,173.474c-0.218,0.207-0.562,0.198-0.769-0.019
							s-0.197-0.561,0.02-0.768l3.45-3.294c0.218-0.207,0.561-0.198,0.769,0.019c0.207,0.218,0.198,0.561-0.02,0.769
							L313.007,173.474z"/>
						<path style="fill-rule:evenodd;clip-rule:evenodd;fill:#95B34C;" d="M313.993,173.927c-0.194-0.229-0.166-0.572,0.063-0.767
							c0.23-0.193,0.572-0.165,0.767,0.064l3.354,3.963c0.194,0.23,0.166,0.573-0.064,0.766c-0.228,0.194-0.572,0.165-0.767-0.063
							L313.993,173.927z"/>
						<path style="fill-rule:evenodd;clip-rule:evenodd;fill:#E2AB99;" d="M308.607,195.934c-0.336-0.835,0.07-1.784,0.905-2.119
							c0.837-0.335,1.785,0.071,2.12,0.907c0.022,0.053,5.487,17.883-21.124,41.713c-0.67,0.599-1.698,0.541-2.299-0.128
							c-0.599-0.669-0.541-1.699,0.129-2.298C313.228,211.72,308.625,195.981,308.607,195.934z"/>
						<path style="fill-rule:evenodd;clip-rule:evenodd;fill:#D78761;" d="M240.795,192.359
							c0.32,13.411,38.432-15.809,18.399-20.785C248.112,168.821,240.57,182.874,240.795,192.359z"/>
					</g>
					<g>
						<g>
							<path style="fill-rule:evenodd;clip-rule:evenodd;fill:#EDC134;" d="M180.331,193.586
								c-1.988-5.654,11.007-6.457,14.393-2.708c2.582,2.86-0.27,8.654,3.842,15.202c28.339,45.13,72.002,41.687,105.772,29.98
								c6.487-2.249,5.113,4.947,2.307,12.597c-14.036,38.256-81.845,35.996-106.963,14.669
								c-23.522-19.973-20.844-43.009-13.296-52.446C188.688,208.001,181.688,197.443,180.331,193.586z"/>
							<path style="fill-rule:evenodd;clip-rule:evenodd;fill:#DEAC2F;" d="M307.56,235.859c2.586,1.163,1.27,6.843-0.916,12.798
								c-14.036,38.256-81.845,35.996-106.963,14.669c-23.522-19.973-20.844-43.009-13.296-52.446
								c1.446-1.807-0.776-6.643-2.965-10.945c5.141,6.578,7.175,12.148,7.51,19.174c0.46,9.686,8.992,30.901,31.13,40.354
								c22.138,9.455,44.967,7.149,58.111-1.383C291.904,250.465,301.798,243.769,307.56,235.859z"/>
							<path style="fill-rule:evenodd;clip-rule:evenodd;fill:#BA7427;" d="M308.063,236.142c0.732,0.73,1.158,1.924,0.795,4.676
								c-0.188,1.421-5.477-4.163-4.854-4.624C304.58,235.767,307.109,235.191,308.063,236.142z"/>
							<path style="fill-rule:evenodd;clip-rule:evenodd;fill:#BA7427;" d="M186.072,228.242c-0.165-0.885,0.417-1.736,1.302-1.903
								c0.885-0.165,1.737,0.418,1.903,1.303c1.913,10.212,6.707,18.647,13.374,25.198c7.087,6.967,16.294,11.819,26.418,14.433
								c10.169,2.622,21.259,2.987,32.061,0.962c13.632-2.554,26.789-8.915,37.032-19.337c0.631-0.641,1.663-0.65,2.305-0.019
								c0.642,0.631,0.65,1.663,0.02,2.305c-10.737,10.924-24.505,17.585-38.757,20.256c-11.262,2.11-22.837,1.727-33.464-1.015
								c-10.673-2.753-20.396-7.886-27.9-15.26C193.239,248.161,188.116,239.148,186.072,228.242z"/>
							<path style="fill-rule:evenodd;clip-rule:evenodd;fill:#BA7427;" d="M183.716,191.296c0.374-0.12,0.774,0.086,0.894,0.459
								c0.119,0.374-0.086,0.774-0.46,0.894c-0.002,0-0.269,0.085-0.509,0.188c0.418,0.114,0.994,0.195,1.653,0.242
								c2.327,0.166,5.54-0.08,6.651-0.711c0.168-0.095,0.417,0.189,0.348,0.067c-0.275-0.483-3.311-0.83-4.204-0.932
								c-0.139-0.016-0.233-0.026-0.306-0.039c-0.386-0.069-0.643-0.438-0.574-0.824c0.068-0.386,0.438-0.643,0.824-0.574
								l0.211,0.023c1.058,0.121,4.652,0.531,5.284,1.645c0.359,0.633,0.173,1.271-0.881,1.87c-1.338,0.76-4.92,1.076-7.454,0.895
								c-0.763-0.055-1.446-0.154-1.962-0.3c-0.714-0.201-1.195-0.535-1.324-1.023c-0.06-0.227-0.042-0.455,0.06-0.684l0.002,0.001
								v-0.001C182.307,191.736,183.712,191.298,183.716,191.296z"/>
						</g>
						<path style="fill-rule:evenodd;clip-rule:evenodd;fill:#F2D26F;" d="M210.449,224.874
							c10.235,13.606,28.659,22.138,48.516,21.676c19.858-0.461,23.747-2.768,19.858,1.845c-3.89,4.613-33.368,7.379-50.973-1.383
							C210.244,238.249,205.74,223.491,210.449,224.874z"/>
					</g>
					<g>
						<path style="fill-rule:evenodd;clip-rule:evenodd;fill:#7C963B;" d="M193.913,156.38c-5.065-3.216-13.271-8.936-14.818-13.134
							c-1.75-4.748,3.894-7.128,10.642,0.741c-2.642-4.47-4.869-9.19-4.758-12.263c0.216-6.035,7.932-5.766,11.394,7.355
							c-0.036-1.909,0.141-3.578,0.639-4.773c2.515-6.019,11.354-0.794,5.142,18.881
							C201.295,155.907,195.811,157.585,193.913,156.38z"/>
						<path style="fill-rule:evenodd;clip-rule:evenodd;fill:#D27E4F;" d="M210.685,151.73c-7.569-6.685-18.816-1.223-21.322,7.03
							c-6.099,20.093,29.722,76.104,39.588,73.105C239.779,228.574,228.091,167.102,210.685,151.73z"/>
						<path style="fill-rule:evenodd;clip-rule:evenodd;fill:#DA8E5F;" d="M210.685,151.73c-4.874-4.305-11.273-3.572-15.881-0.301
							c-6.513,22.249,26.906,75.036,36.454,72.134c0.628-0.145,1.196-0.41,1.713-0.775
							C234.517,204.388,224.369,163.815,210.685,151.73z"/>
						<path style="fill-rule:evenodd;clip-rule:evenodd;fill:#B65722;" d="M203.318,160.419c-0.6,0.005-1.09-0.477-1.094-1.077
							c-0.005-0.599,0.477-1.089,1.077-1.094c0.011,0,4.052,0,7.407-2.648c0.47-0.371,1.152-0.291,1.524,0.179
							c0.371,0.47,0.29,1.152-0.18,1.523C208.105,160.419,203.331,160.419,203.318,160.419z"/>
						<path style="fill-rule:evenodd;clip-rule:evenodd;fill:#B65722;" d="M197.352,170.223c-0.601,0-1.089-0.488-1.089-1.089
							c0-0.602,0.488-1.089,1.089-1.089c0.004,0,1.35,0,3.648-0.884c0.56-0.214,1.187,0.066,1.401,0.625
							c0.213,0.56-0.066,1.187-0.626,1.4C199.078,170.223,197.358,170.223,197.352,170.223z"/>
						<path style="fill-rule:evenodd;clip-rule:evenodd;fill:#E1A47C;" d="M215.144,162.409c-6.372-5.627-6.431,1.076-3.982,7.801
							c0.759,2.087,8.279,24.78,12.695,31.795c4.254,6.756,5.665,4.186,5.096-2.021C228.04,190.04,220.686,167.303,215.144,162.409z
							"/>
						<path style="fill-rule:evenodd;clip-rule:evenodd;fill:#B65722;" d="M213.943,176.753c-0.6,0.035-1.114-0.422-1.149-1.021
							c-0.036-0.6,0.422-1.114,1.021-1.149c0.008-0.001,2.75-0.172,4.025-1.128c0.48-0.36,1.161-0.263,1.52,0.217
							c0.359,0.479,0.263,1.16-0.217,1.519C217.342,176.54,213.952,176.752,213.943,176.753z"/>
						<path style="fill-rule:evenodd;clip-rule:evenodd;fill:#B65722;" d="M199.579,186.327c-0.581-0.15-0.929-0.743-0.779-1.324
							c0.15-0.581,0.743-0.929,1.323-0.778c0.007,0.001,2.446,0.653,6.285-1.615c0.517-0.305,1.184-0.134,1.49,0.383
							c0.305,0.517,0.133,1.184-0.384,1.49C202.897,187.211,199.588,186.33,199.579,186.327z"/>
						<path style="fill-rule:evenodd;clip-rule:evenodd;fill:#B65722;" d="M217.145,196.454c-0.601,0-1.089-0.488-1.089-1.089
							c0-0.602,0.488-1.09,1.089-1.09c0.004,0,1.35,0,3.649-0.884c0.56-0.214,1.186,0.066,1.4,0.625
							c0.214,0.56-0.067,1.187-0.625,1.4C218.872,196.454,217.15,196.454,217.145,196.454z"/>
						<path style="fill-rule:evenodd;clip-rule:evenodd;fill:#B65722;" d="M210.42,207.984c-0.602,0-1.09-0.488-1.09-1.089
							c0-0.602,0.488-1.09,1.09-1.09c0.003,0,1.349,0,3.648-0.884c0.56-0.214,1.187,0.066,1.4,0.626
							c0.214,0.559-0.066,1.186-0.626,1.4C212.145,207.984,210.425,207.984,210.42,207.984z"/>
						<path style="fill-rule:evenodd;clip-rule:evenodd;fill:#B65722;" d="M221.87,213.999c-0.581-0.15-0.929-0.743-0.779-1.324
							c0.149-0.58,0.742-0.928,1.323-0.778c0.007,0.002,2.446,0.653,6.285-1.615c0.517-0.305,1.184-0.134,1.49,0.383
							c0.305,0.517,0.133,1.185-0.384,1.49C225.189,214.883,221.879,214.001,221.87,213.999z"/>
						<path style="fill-rule:evenodd;clip-rule:evenodd;fill:#B65722;" d="M224.448,226.913c-0.602,0-1.089-0.488-1.089-1.09
							c0-0.602,0.488-1.089,1.089-1.089c0.003,0,1.35,0,3.648-0.884c0.56-0.214,1.187,0.066,1.401,0.625
							c0.213,0.56-0.066,1.186-0.626,1.4C226.173,226.913,224.454,226.913,224.448,226.913z"/>
					</g>
				</g>
			</g>
			<g>
				<g>
					<path style="fill-rule:evenodd;clip-rule:evenodd;fill:#FFFFFF;" d="M148.876,195.62c-0.092-0.896,0.56-1.696,1.455-1.787
						c0.896-0.092,1.696,0.56,1.788,1.456c0.024,0.234,8.262,81.538,34.533,92.808c0.828,0.353,1.214,1.311,0.861,2.14
						c-0.352,0.828-1.31,1.214-2.138,0.862C157.316,279.06,148.901,195.86,148.876,195.62z"/>
					<path style="fill-rule:evenodd;clip-rule:evenodd;fill:#D6E7DE;" d="M151.323,186.54c0.109,0.896-0.528,1.71-1.424,1.82
						c-0.895,0.109-1.71-0.528-1.819-1.424l-0.857-6.987c-0.109-0.895,0.528-1.709,1.424-1.819c0.895-0.109,1.71,0.528,1.819,1.423
						L151.323,186.54z"/>
				</g>
				<g>
					<path style="fill-rule:evenodd;clip-rule:evenodd;fill:#FFFFFF;" d="M314.487,337.331c-0.305-0.752,0.058-1.607,0.809-1.911
						c0.751-0.304,1.606,0.058,1.911,0.809c0.111,0.276,39.348,95.912,12.572,104.873c-0.768,0.256-1.597-0.158-1.854-0.924
						c-0.256-0.768,0.158-1.598,0.925-1.854C352.629,430.366,314.596,337.598,314.487,337.331z"/>
					<path style="fill-rule:evenodd;clip-rule:evenodd;fill:#FFFFFF;" d="M314.418,328.414c0.301,0.751-0.065,1.604-0.815,1.904
						c-0.752,0.301-1.604-0.063-1.905-0.813l-3.174-7.86c-0.301-0.751,0.064-1.604,0.815-1.905c0.751-0.301,1.604,0.063,1.905,0.815
						L314.418,328.414z"/>
				</g>
				<path style="fill-rule:evenodd;clip-rule:evenodd;fill:#FFFFFF;" d="M328.591,237.475c0.13-0.772,0.861-1.294,1.634-1.165
					c0.773,0.129,1.295,0.861,1.166,1.634c-0.011,0.063-3.351,21.57-25.614,49.426c-0.489,0.611-1.381,0.713-1.993,0.224
					c-0.611-0.488-0.712-1.379-0.224-1.991C325.354,258.334,328.581,237.536,328.591,237.475z"/>
			</g>
		</g>
		<g>
			<g>
				<path style="fill-rule:evenodd;clip-rule:evenodd;fill:#FDF5D3;" d="M104.228,133.31c10.987,0,18.676,8.479,18.676,19.691
					c0,11.211-8.298,22.532-22.533,20.097c-14.235-2.436-17.255-8.886-17.255-20.097C83.116,141.789,93.241,133.31,104.228,133.31z"
					/>
				<path style="fill-rule:evenodd;clip-rule:evenodd;fill:#EDC134;" d="M104.371,129.233c6.581,0,12.195,2.532,16.19,6.745
					c4.039,4.259,6.399,10.214,6.399,16.979c0,1.539-0.135,3.089-0.397,4.624c-0.894,5.227-3.304,10.187-7.053,13.852
					c-3.785,3.701-8.91,6.073-15.191,6.073c-1.447,0-2.964-0.129-4.548-0.399c-8.42-1.441-13.578-4.14-16.681-8.203
					c-3.105-4.067-4.031-9.326-4.031-15.947c0-6.629,2.919-12.461,7.452-16.689C91.211,131.885,97.658,129.233,104.371,129.233
					L104.371,129.233z M115.662,138.821c-6.28-6.621-18.801-5.807-25.366,0.316c-3.863,3.604-6.473,8.562-6.473,14.183
					c0,5.909,0.399,9.188,2.958,12.538c2.561,3.354,6.199,5.258,13.688,6.54c1.372,0.234,2.697,0.346,3.971,0.346
					c5.313,0,7.694-0.78,10.869-3.884c3.211-3.141,5.767-7.31,6.544-11.855c0.227-1.327,0.342-2.684,0.342-4.047
					C122.197,147.089,119.099,142.447,115.662,138.821z"/>
				<path style="fill-rule:evenodd;clip-rule:evenodd;fill:#BA7427;" d="M101.367,157.607c0.438,0,0.794-0.382,0.794-0.851
					c0-0.468-0.356-0.85-0.794-0.85s-0.794,0.382-0.794,0.85C100.573,157.225,100.929,157.607,101.367,157.607z"/>
				<path style="fill-rule:evenodd;clip-rule:evenodd;fill:#EDC134;" d="M118.657,153.365c0.211,0.164,0.354,0.4,0.33,0.675
					c-0.045,0.5-0.551,0.692-0.961,0.81c-0.463,0.132-0.956,0.223-1.428,0.315c-1.333,0.262-2.66,0.525-3.953,0.952
					c-1.435,0.475-3.224,1.28-3.941,2.703c-0.37,0.733-0.609,1.548-0.776,2.349c-0.274,1.317-0.369,2.664-0.431,4.005
					c-0.021,0.473-0.034,0.956-0.079,1.427c-0.04,0.419-0.118,0.973-0.624,1.074c-0.339,0.068-0.597-0.135-0.77-0.4
					c-0.124-0.191-0.225-0.418-0.314-0.628c-0.343-0.804-0.632-1.665-0.916-2.492c-1.006-2.933-1.63-6.697,0.893-9.073
					c3.003-2.83,8.902-2.246,12.681-1.834l0.162,0.018L118.657,153.365L118.657,153.365z M114.923,147.073l0.137-0.085l0.074-0.144
					c0.121-0.24,0.149-0.51,0.007-0.751c-0.255-0.432-0.793-0.389-1.216-0.319c-0.475,0.078-0.959,0.208-1.425,0.327
					c-1.316,0.335-2.628,0.667-3.979,0.835c-1.5,0.187-3.461,0.226-4.719-0.752c-0.647-0.503-1.213-1.137-1.708-1.789
					c-0.813-1.072-1.476-2.249-2.106-3.434c-0.223-0.417-0.441-0.849-0.684-1.255c-0.216-0.361-0.523-0.829-1.023-0.703
					c-0.601,0.151-0.558,0.918-0.538,1.394c0.034,0.873,0.142,1.774,0.241,2.643c0.833,7.358,4.841,9.753,11.483,6.98
					C111.39,149.218,113.154,148.162,114.923,147.073L114.923,147.073z M95.044,166.673c-0.251,0.099-0.522,0.104-0.749-0.059
					c-0.408-0.293-0.317-0.825-0.21-1.239c0.119-0.466,0.293-0.937,0.453-1.391c0.45-1.281,0.897-2.559,1.185-3.889
					c0.319-1.477,0.532-3.428-0.33-4.768c-0.443-0.69-1.025-1.31-1.63-1.86c-0.996-0.905-2.108-1.669-3.234-2.403
					c-0.396-0.258-0.806-0.515-1.189-0.792c-0.34-0.247-0.779-0.595-0.609-1.082c0.204-0.584,0.963-0.474,1.436-0.413
					c0.868,0.112,1.755,0.3,2.612,0.475c3.038,0.621,6.598,1.993,7.366,5.372c0.914,4.024-2.582,8.812-4.853,11.859l-0.097,0.13
					L95.044,166.673z"/>
				<path style="fill-rule:evenodd;clip-rule:evenodd;fill:#EDC134;" d="M118.307,153.817c-4.896-0.533-17.133-1.977-12.972,10.154
					c2.672,7.788,0.52-0.77,2.857-5.407C110.24,154.5,119.527,154.765,118.307,153.817L118.307,153.817z M114.623,146.585
					c-4.194,2.581-14.629,9.134-16.072-3.609c-0.926-8.182,0.8,0.472,4.9,3.659C107.043,149.428,115.32,145.205,114.623,146.585
					L114.623,146.585z M94.832,166.142c-1.436,0.571,3.504-7.298,1.041-11.124c-2.809-4.368-11.277-6.854-3.209-5.206
					C105.229,152.381,97.776,162.193,94.832,166.142z"/>
				<path style="fill-rule:evenodd;clip-rule:evenodd;fill:#BA7427;" d="M103.182,152.956c0.438,0,0.794-0.382,0.794-0.85
					c0-0.469-0.356-0.851-0.794-0.851s-0.794,0.382-0.794,0.851C102.388,152.574,102.744,152.956,103.182,152.956z"/>
				<path style="fill-rule:evenodd;clip-rule:evenodd;fill:#BA7427;" d="M99.892,156.189c0.438,0,0.794-0.382,0.794-0.851
					c0-0.468-0.356-0.851-0.794-0.851c-0.437,0-0.793,0.382-0.793,0.851C99.099,155.807,99.455,156.189,99.892,156.189z"/>
				<path style="fill-rule:evenodd;clip-rule:evenodd;fill:#BA7427;" d="M108.116,159.48c0.438,0,0.795-0.382,0.795-0.851
					c0-0.469-0.356-0.851-0.795-0.851c-0.438,0-0.794,0.382-0.794,0.851C107.322,159.097,107.679,159.48,108.116,159.48z"/>
			</g>
			<g>
				<path style="fill-rule:evenodd;clip-rule:evenodd;fill:#FDF5D3;" d="M384.348,270.43c10.987,0,18.676,8.48,18.676,19.691
					c0,11.211-8.298,22.533-22.533,20.097c-14.234-2.436-17.255-8.886-17.255-20.097C363.235,278.909,373.36,270.43,384.348,270.43z
					"/>
				<path style="fill-rule:evenodd;clip-rule:evenodd;fill:#EDC134;" d="M384.491,266.353c6.581,0,12.195,2.532,16.19,6.746
					c4.039,4.258,6.398,10.213,6.398,16.977c0,1.54-0.132,3.09-0.396,4.625c-0.894,5.227-3.304,10.187-7.053,13.853
					c-3.785,3.7-8.908,6.073-15.191,6.073c-1.447,0-2.964-0.129-4.548-0.399c-8.42-1.441-13.577-4.14-16.68-8.203
					c-3.107-4.068-4.032-9.326-4.032-15.948c0-6.628,2.919-12.461,7.451-16.688C371.33,269.005,377.778,266.353,384.491,266.353
					L384.491,266.353z M395.781,275.942c-6.28-6.62-18.8-5.808-25.365,0.316c-3.863,3.604-6.474,8.562-6.474,14.182
					c0,5.91,0.399,9.189,2.958,12.539c2.561,3.354,6.199,5.258,13.689,6.538c1.371,0.235,2.695,0.348,3.971,0.348
					c5.314,0,7.694-0.78,10.869-3.886c3.212-3.14,5.767-7.309,6.545-11.854c0.227-1.326,0.343-2.683,0.343-4.048
					C402.317,284.209,399.219,279.567,395.781,275.942z"/>
				<path style="fill-rule:evenodd;clip-rule:evenodd;fill:#BA7427;" d="M381.486,294.728c0.438,0,0.794-0.382,0.794-0.851
					c0-0.468-0.357-0.851-0.794-0.851s-0.794,0.383-0.794,0.851C380.692,294.347,381.049,294.728,381.486,294.728z"/>
				<path style="fill-rule:evenodd;clip-rule:evenodd;fill:#EDC134;" d="M398.776,290.486c0.211,0.164,0.353,0.399,0.329,0.675
					c-0.045,0.499-0.55,0.69-0.961,0.81c-0.463,0.133-0.956,0.223-1.428,0.315c-1.334,0.263-2.66,0.525-3.953,0.951
					c-1.436,0.475-3.224,1.281-3.941,2.704c-0.369,0.732-0.608,1.548-0.775,2.349c-0.274,1.316-0.368,2.663-0.431,4.006
					c-0.021,0.473-0.035,0.956-0.079,1.427c-0.039,0.419-0.118,0.973-0.623,1.075c-0.34,0.066-0.596-0.136-0.77-0.401
					c-0.124-0.19-0.226-0.419-0.314-0.628c-0.344-0.804-0.632-1.666-0.916-2.492c-1.006-2.933-1.63-6.696,0.892-9.073
					c3.005-2.829,8.904-2.245,12.682-1.834l0.161,0.018L398.776,290.486L398.776,290.486z M395.043,284.193l0.139-0.086l0.072-0.143
					c0.121-0.241,0.149-0.512,0.007-0.752c-0.255-0.432-0.794-0.389-1.216-0.319c-0.475,0.079-0.958,0.208-1.425,0.327
					c-1.316,0.336-2.628,0.667-3.979,0.836c-1.5,0.187-3.461,0.226-4.719-0.752c-0.648-0.504-1.214-1.138-1.708-1.788
					c-0.814-1.073-1.477-2.249-2.108-3.435c-0.223-0.418-0.44-0.85-0.684-1.256c-0.216-0.361-0.522-0.828-1.022-0.703
					c-0.602,0.151-0.558,0.918-0.539,1.395c0.035,0.874,0.143,1.774,0.242,2.643c0.832,7.358,4.84,9.754,11.482,6.98
					C391.51,286.338,393.273,285.281,395.043,284.193L395.043,284.193z M375.164,303.794c-0.249,0.1-0.522,0.104-0.749-0.059
					c-0.407-0.293-0.316-0.824-0.209-1.239c0.12-0.466,0.293-0.938,0.452-1.391c0.45-1.282,0.896-2.56,1.185-3.89
					c0.319-1.477,0.532-3.428-0.329-4.768c-0.444-0.689-1.026-1.31-1.631-1.86c-0.996-0.905-2.11-1.669-3.234-2.403
					c-0.395-0.259-0.806-0.514-1.188-0.792c-0.341-0.247-0.779-0.596-0.61-1.081c0.204-0.586,0.964-0.475,1.437-0.413
					c0.867,0.112,1.755,0.3,2.611,0.476c3.038,0.62,6.599,1.993,7.367,5.371c0.914,4.025-2.583,8.813-4.853,11.859l-0.098,0.13
					L375.164,303.794z"/>
				<path style="fill-rule:evenodd;clip-rule:evenodd;fill:#EDC134;" d="M398.426,290.938c-4.895-0.531-17.132-1.978-12.971,10.153
					c2.672,7.789,0.52-0.77,2.856-5.407C390.359,291.62,399.648,291.887,398.426,290.938L398.426,290.938z M394.743,283.706
					c-4.194,2.581-14.629,9.134-16.072-3.609c-0.927-8.181,0.8,0.473,4.9,3.659C387.163,286.549,395.439,282.326,394.743,283.706
					L394.743,283.706z M374.953,303.263c-1.438,0.571,3.504-7.298,1.041-11.124c-2.81-4.367-11.277-6.854-3.21-5.205
					C385.349,289.502,377.896,299.314,374.953,303.263z"/>
				<path style="fill-rule:evenodd;clip-rule:evenodd;fill:#BA7427;" d="M383.302,290.076c0.438,0,0.793-0.382,0.793-0.85
					c0-0.469-0.355-0.851-0.793-0.851s-0.794,0.382-0.794,0.851C382.508,289.694,382.864,290.076,383.302,290.076z"/>
				<path style="fill-rule:evenodd;clip-rule:evenodd;fill:#BA7427;" d="M380.012,293.31c0.438,0,0.794-0.382,0.794-0.851
					c0-0.468-0.357-0.851-0.794-0.851s-0.795,0.383-0.795,0.851C379.217,292.929,379.574,293.31,380.012,293.31z"/>
				<path style="fill-rule:evenodd;clip-rule:evenodd;fill:#BA7427;" d="M388.236,296.601c0.438,0,0.794-0.383,0.794-0.852
					c0-0.468-0.357-0.851-0.794-0.851s-0.794,0.383-0.794,0.851C387.442,296.218,387.799,296.601,388.236,296.601z"/>
			</g>
			<g>
				<path style="fill-rule:evenodd;clip-rule:evenodd;fill:#CE603D;" d="M352.455,83.357c-0.845,2.594-3.492,11.761-2.07,21.056
					c2.577,16.858,25.314,31.563,46.603,20.366c6.142-3.23,10.95-7.52,9.238-9.377C401.802,110.601,353.423,80.384,352.455,83.357z"
					/>
				<path style="fill-rule:evenodd;clip-rule:evenodd;fill:#CE603D;" d="M354.49,84.701c-0.439,1.425-1.146,3.989-1.641,7.156
					c-0.563,3.608-0.857,8.003-0.185,12.399c0.432,2.83,1.51,5.612,3.103,8.202c2.604,4.236,6.575,7.919,11.361,10.445
					c4.809,2.538,10.429,3.904,16.302,3.487c4.031-0.285,8.204-1.417,12.342-3.593c2.416-1.271,4.6-2.702,6.202-4.058
					c0.979-0.828,1.709-1.596,2.1-2.237c0.066-0.11,0.348,0.203,0.379,0.207c-3.057-3.11-23.018-15.977-37.56-24.327
					c-4.107-2.359-7.74-4.332-10.384-5.595C355.046,86.089,354.783,84.81,354.49,84.701L354.49,84.701z M348.291,90.887
					c0.614-3.945,1.522-6.998,1.959-8.343c0.094-0.288,0.241-0.546,0.442-0.777c1.112-1.277,3.839-0.748,7.587,1.04
					c2.843,1.356,6.591,3.388,10.745,5.774c15.021,8.625,35.925,22.208,38.871,25.404c0.177,0.192,0.328,0.392,0.454,0.597
					c0.837,1.36,0.683,2.855-0.245,4.383c-0.622,1.025-1.643,2.126-2.941,3.225c-1.835,1.553-4.285,3.165-6.958,4.57
					c-4.681,2.462-9.453,3.746-14.104,4.076c-6.827,0.484-13.353-1.101-18.932-4.044c-5.602-2.956-10.261-7.285-13.328-12.273
					c-1.908-3.103-3.205-6.475-3.736-9.949C347.356,99.67,347.675,94.835,348.291,90.887z"/>
				<g>
					<path style="fill-rule:evenodd;clip-rule:evenodd;fill:#FFFCED;" d="M395.134,118.788c5.205-2.737,10.17-6.566,8.566-7.996
						c-3.227-2.875-38.713-24.607-45.306-27.871c-1.856-0.919-3.327,7.603-3.503,13.481
						C354.306,115.957,377.637,127.99,395.134,118.788z"/>
					<path style="fill:#FFFCED;" d="M382.251,124.77h-0.001c-8.614,0-16.887-3.433-22.694-9.418
						c-5.047-5.2-7.709-11.96-7.497-19.035c0.182-6.087,1.211-16.3,6.059-16.3c0.532,0,1.049,0.122,1.535,0.363
						c6.667,3.3,42.327,25.081,45.934,28.295c0.932,0.831,1.379,2.022,1.226,3.271c-0.444,3.629-6.681,7.415-10.358,9.35
						C392.133,123.569,387.222,124.77,382.251,124.77z M359.087,86.493c-0.595,2.084-1.24,5.926-1.362,9.994
						c-0.212,7.086,3.091,12.023,5.899,14.917c4.677,4.819,11.64,7.697,18.626,7.697c0.001,0,0.001,0,0.001,0
						c4.113,0,8.003-0.949,11.563-2.822c3.254-1.711,5.479-3.355,6.616-4.406C393.791,107.234,368.005,91.399,359.087,86.493z"/>
				</g>
				<path style="fill-rule:evenodd;clip-rule:evenodd;fill:#F6DF86;" d="M392.119,109.079c3.559-1.871,6.951-4.487,5.855-5.464
					c-2.204-1.965-26.457-16.818-30.964-19.048c-1.268-0.628-2.272,5.196-2.394,9.214
					C364.217,107.145,380.162,115.368,392.119,109.079z"/>
				<path style="fill-rule:evenodd;clip-rule:evenodd;fill:#BA7427;" d="M380.696,98.702c-0.682,1.265-2.74,4.719-4.429,3.699
					C372.76,100.281,382.166,95.971,380.696,98.702z"/>
				<path style="fill-rule:evenodd;clip-rule:evenodd;fill:#BA7427;" d="M382.531,99.43c0.452,1.437,1.551,5.494-0.312,5.836
					C378.349,105.979,381.557,96.329,382.531,99.43z"/>
			</g>
			<g>
				<path style="fill-rule:evenodd;clip-rule:evenodd;fill:#CE603D;" d="M366.322,408.093c2.425,1.249,11.052,5.329,20.454,5.413
					c17.053,0.153,35.206-19.938,27.559-42.745c-2.206-6.579-5.671-12.012-7.778-10.619
					C401.111,363.741,363.543,406.662,366.322,408.093z"/>
				<path style="fill-rule:evenodd;clip-rule:evenodd;fill:#CE603D;" d="M367.976,406.3c1.336,0.661,3.754,1.77,6.8,2.764
					c3.473,1.134,7.764,2.127,12.212,2.166c2.862,0.027,5.78-0.592,8.592-1.75c4.598-1.893,8.87-5.224,12.128-9.544
					c3.274-4.341,5.522-9.67,6.05-15.533c0.364-4.025-0.086-8.325-1.571-12.758c-0.869-2.589-1.932-4.973-3.014-6.772
					c-0.66-1.099-1.301-1.942-1.871-2.431c-0.1-0.083,0.256-0.311,0.264-0.341c-3.559,2.52-19.453,20.166-30.023,33.184
					c-2.985,3.677-5.515,6.947-7.184,9.354C369.434,405.973,368.129,406.027,367.976,406.3L367.976,406.3z M373.089,413.408
					c-3.795-1.237-6.664-2.621-7.922-3.269c-0.269-0.139-0.501-0.325-0.696-0.56c-1.083-1.303-0.124-3.909,2.241-7.323
					c1.793-2.589,4.398-5.964,7.419-9.683c10.917-13.447,27.671-31.908,31.296-34.306c0.219-0.144,0.439-0.262,0.662-0.353
					c1.477-0.608,2.927-0.218,4.287,0.943c0.911,0.777,1.836,1.961,2.713,3.419c1.239,2.06,2.438,4.736,3.398,7.6
					c1.681,5.015,2.185,9.931,1.766,14.575c-0.614,6.816-3.223,13.004-7.021,18.041c-3.815,5.056-8.833,8.963-14.248,11.192
					c-3.368,1.387-6.904,2.128-10.419,2.097C381.61,415.736,376.888,414.648,373.089,413.408z"/>
				<g>
					<path style="fill-rule:evenodd;clip-rule:evenodd;fill:#FFFCED;" d="M408.126,371.634c-1.87-5.576-4.855-11.09-6.523-9.736
						c-3.354,2.725-30.484,34.277-34.761,40.263c-1.205,1.686,6.972,4.501,12.747,5.615
						C398.799,411.482,414.41,390.377,408.126,371.634z"/>
					<path style="fill:#FFFCED;" d="M411.97,385.308v0.001c-1.379,8.503-6.091,16.119-12.928,20.895
						c-5.941,4.15-13.04,5.696-19.989,4.355c-5.98-1.153-15.896-3.804-15.12-8.589c0.085-0.525,0.288-1.016,0.604-1.457
						c4.324-6.054,31.53-37.77,35.28-40.814c0.97-0.787,2.217-1.038,3.425-0.687c3.512,1.019,6.251,7.78,7.571,11.721
						C412.365,375.36,412.766,380.4,411.97,385.308z M370.479,402.049c1.962,0.92,5.651,2.172,9.648,2.943
						c6.961,1.343,12.362-1.127,15.668-3.436c5.506-3.846,9.46-10.258,10.578-17.154c0-0.001,0-0.001,0-0.001
						c0.658-4.061,0.344-8.052-0.935-11.866c-1.168-3.486-2.435-5.946-3.291-7.236C396.505,371.11,376.75,394.03,370.479,402.049z"
						/>
				</g>
				<path style="fill-rule:evenodd;clip-rule:evenodd;fill:#F6DF86;" d="M398.06,373.056c-1.277-3.813-3.318-7.58-4.458-6.653
					c-2.292,1.861-20.833,23.425-23.756,27.518c-0.823,1.15,4.766,3.074,8.712,3.837
					C391.685,400.289,402.354,385.865,398.06,373.056z"/>
				<path style="fill-rule:evenodd;clip-rule:evenodd;fill:#BA7427;" d="M385.989,382.671c1.138,0.875,4.219,3.46,2.942,4.964
					C386.276,390.758,383.527,380.783,385.989,382.671z"/>
				<path style="fill-rule:evenodd;clip-rule:evenodd;fill:#BA7427;" d="M387.002,380.977c1.489-0.217,5.67-0.652,5.711,1.241
					C392.796,386.152,383.784,381.442,387.002,380.977z"/>
			</g>
			<g>
				<path style="fill-rule:evenodd;clip-rule:evenodd;fill:#CE603D;" d="M91.382,260.524c-0.536,2.675-2.094,12.09,0.404,21.154
					c4.529,16.441,28.829,28.389,48.664,14.781c5.722-3.926,9.996-8.748,8.079-10.393
					C143.574,281.817,91.996,257.459,91.382,260.524z"/>
				<path style="fill-rule:evenodd;clip-rule:evenodd;fill:#CE603D;" d="M93.56,261.623c-0.27,1.466-0.672,4.095-0.793,7.297
					c-0.138,3.65,0.084,8.049,1.266,12.338c0.758,2.76,2.154,5.396,4.039,7.782c3.08,3.902,7.455,7.098,12.504,9.046
					c5.072,1.958,10.813,2.658,16.597,1.558c3.971-0.754,7.982-2.365,11.838-5.01c2.251-1.546,4.252-3.221,5.686-4.755
					c0.876-0.936,1.511-1.783,1.824-2.466c0.052-0.119,0.369,0.161,0.4,0.16c-3.399-2.731-24.728-13.178-40.145-19.772
					c-4.354-1.862-8.193-3.398-10.966-4.343C94.274,262.935,93.864,261.695,93.56,261.623L93.56,261.623z M88.127,268.489
					c0.149-3.988,0.693-7.127,0.971-8.515c0.06-0.296,0.175-0.57,0.348-0.823c0.956-1.398,3.725-1.191,7.657,0.147
					c2.981,1.014,6.941,2.594,11.346,4.479c15.926,6.812,38.273,17.86,41.573,20.688c0.198,0.171,0.372,0.351,0.521,0.54
					c0.99,1.253,1.012,2.755,0.268,4.382c-0.498,1.089-1.382,2.303-2.544,3.546c-1.641,1.757-3.886,3.643-6.377,5.353
					c-4.361,2.991-8.951,4.824-13.532,5.695c-6.724,1.278-13.389,0.467-19.274-1.805c-5.908-2.282-11.042-6.036-14.671-10.632
					c-2.257-2.858-3.939-6.056-4.873-9.444C88.225,277.322,87.976,272.482,88.127,268.489z"/>
				<g>
					<path style="fill-rule:evenodd;clip-rule:evenodd;fill:#FFFCED;" d="M137.908,290.728c4.85-3.328,9.333-7.71,7.574-8.943
						c-3.541-2.478-41.323-19.915-48.251-22.386c-1.952-0.697-2.416,7.939-1.904,13.798
						C97.029,292.685,121.606,301.91,137.908,290.728z"/>
					<path style="fill:#FFFCED;" d="M125.812,298.174L125.812,298.174c-8.556,1.006-17.172-1.438-23.64-6.702
						c-5.621-4.575-9.054-10.979-9.67-18.028c-0.531-6.067-0.702-16.33,4.113-16.896c0.529-0.061,1.056-0.001,1.567,0.182
						c7.007,2.498,44.968,19.963,48.925,22.734c1.023,0.717,1.606,1.847,1.599,3.105c-0.016,3.656-5.768,8.145-9.195,10.495
						C135.486,295.826,130.749,297.593,125.812,298.174z M98.335,262.865c-0.347,2.139-0.539,6.03-0.185,10.084
						c0.618,7.063,4.474,11.58,7.602,14.125c5.208,4.24,12.459,6.284,19.397,5.469c0.001-0.001,0.001-0.001,0.001-0.001
						c4.086-0.48,7.837-1.877,11.155-4.153c3.032-2.079,5.05-3.973,6.056-5.149C135.224,279.408,107.766,266.696,98.335,262.865z"/>
				</g>
				<path style="fill-rule:evenodd;clip-rule:evenodd;fill:#F6DF86;" d="M133.78,281.436c3.316-2.273,6.379-5.27,5.176-6.111
					c-2.419-1.694-28.24-13.61-32.978-15.299c-1.332-0.477-1.649,5.426-1.301,9.43C105.842,282.775,122.639,289.08,133.78,281.436z"
					/>
				<path style="fill-rule:evenodd;clip-rule:evenodd;fill:#BA7427;" d="M121.223,272.466c-0.53,1.334-2.17,5.006-3.967,4.191
					C113.525,274.96,122.363,269.581,121.223,272.466z"/>
				<path style="fill-rule:evenodd;clip-rule:evenodd;fill:#BA7427;" d="M123.13,272.975c0.617,1.373,2.183,5.274,0.372,5.833
					C119.742,279.966,121.8,270.009,123.13,272.975z"/>
			</g>
			<g>
				<path style="fill-rule:evenodd;clip-rule:evenodd;fill:#FDF5D3;" d="M97.303,379.223c10.987,0,18.676,8.48,18.676,19.691
					c0,11.211-8.296,22.533-22.533,20.097c-14.234-2.436-17.255-8.886-17.255-20.097C76.191,387.703,86.316,379.223,97.303,379.223z
					"/>
				<path style="fill-rule:evenodd;clip-rule:evenodd;fill:#EDC134;" d="M97.447,375.147c6.58,0,12.194,2.532,16.19,6.745
					c4.039,4.259,6.398,10.213,6.398,16.977c0,1.541-0.133,3.091-0.396,4.625c-0.895,5.227-3.304,10.187-7.052,13.853
					c-3.786,3.701-8.91,6.073-15.193,6.073c-1.447,0-2.963-0.129-4.547-0.399c-8.421-1.441-13.579-4.14-16.681-8.203
					c-3.106-4.066-4.032-9.326-4.032-15.948c0-6.628,2.919-12.461,7.452-16.688C84.286,377.799,90.733,375.147,97.447,375.147
					L97.447,375.147z M108.736,384.735c-6.28-6.62-18.8-5.806-25.365,0.316c-3.864,3.604-6.474,8.563-6.474,14.183
					c0,5.909,0.4,9.188,2.958,12.538c2.562,3.355,6.199,5.258,13.689,6.539c1.371,0.234,2.696,0.347,3.971,0.347
					c5.313,0,7.694-0.78,10.869-3.885c3.212-3.141,5.767-7.31,6.545-11.855c0.226-1.326,0.342-2.683,0.342-4.048
					C115.272,393.003,112.174,388.361,108.736,384.735z"/>
				<path style="fill-rule:evenodd;clip-rule:evenodd;fill:#BA7427;" d="M94.441,403.522c0.438,0,0.794-0.382,0.794-0.852
					c0-0.468-0.355-0.851-0.794-0.851c-0.437,0-0.793,0.383-0.793,0.851C93.648,403.14,94.004,403.522,94.441,403.522z"/>
				<path style="fill-rule:evenodd;clip-rule:evenodd;fill:#EDC134;" d="M111.733,399.279c0.21,0.164,0.354,0.4,0.328,0.675
					c-0.045,0.5-0.55,0.692-0.961,0.81c-0.461,0.132-0.956,0.223-1.428,0.315c-1.333,0.263-2.66,0.525-3.952,0.952
					c-1.437,0.475-3.225,1.28-3.942,2.703c-0.369,0.733-0.608,1.548-0.776,2.349c-0.274,1.317-0.369,2.665-0.43,4.006
					c-0.022,0.474-0.034,0.956-0.08,1.427c-0.04,0.419-0.117,0.973-0.622,1.074c-0.34,0.068-0.597-0.135-0.77-0.4
					c-0.125-0.191-0.226-0.418-0.315-0.628c-0.343-0.804-0.632-1.665-0.916-2.491c-1.006-2.934-1.629-6.697,0.893-9.073
					c3.004-2.83,8.903-2.246,12.682-1.835l0.161,0.018L111.733,399.279L111.733,399.279z M107.998,392.986l0.138-0.085l0.073-0.144
					c0.121-0.241,0.149-0.512,0.007-0.752c-0.255-0.431-0.793-0.389-1.215-0.318c-0.475,0.078-0.959,0.208-1.426,0.326
					c-1.316,0.336-2.628,0.667-3.978,0.836c-1.5,0.188-3.462,0.227-4.721-0.752c-0.648-0.503-1.213-1.137-1.708-1.789
					c-0.813-1.072-1.476-2.248-2.107-3.434c-0.222-0.418-0.441-0.849-0.684-1.255c-0.215-0.361-0.523-0.829-1.023-0.703
					c-0.6,0.15-0.557,0.917-0.538,1.393c0.034,0.874,0.143,1.775,0.241,2.645c0.834,7.358,4.841,9.753,11.484,6.979
					C104.465,395.132,106.229,394.075,107.998,392.986L107.998,392.986z M88.119,412.588c-0.25,0.099-0.522,0.103-0.748-0.06
					c-0.407-0.293-0.317-0.825-0.211-1.239c0.121-0.466,0.293-0.938,0.453-1.391c0.451-1.282,0.897-2.559,1.185-3.89
					c0.319-1.477,0.533-3.428-0.329-4.767c-0.444-0.69-1.026-1.311-1.631-1.86c-0.996-0.905-2.109-1.67-3.233-2.404
					c-0.397-0.258-0.807-0.514-1.19-0.791c-0.341-0.248-0.778-0.597-0.61-1.082c0.204-0.585,0.963-0.474,1.436-0.413
					c0.868,0.112,1.755,0.3,2.613,0.476c3.037,0.62,6.598,1.993,7.366,5.372c0.914,4.024-2.583,8.811-4.853,11.858l-0.097,0.13
					L88.119,412.588z"/>
				<path style="fill-rule:evenodd;clip-rule:evenodd;fill:#EDC134;" d="M111.381,399.731c-4.896-0.533-17.133-1.978-12.971,10.152
					c2.671,7.789,0.519-0.77,2.857-5.407C103.315,400.414,112.604,400.68,111.381,399.731L111.381,399.731z M107.699,392.5
					c-4.195,2.58-14.63,9.134-16.072-3.609c-0.927-8.182,0.799,0.473,4.899,3.658C100.119,395.342,108.395,391.119,107.699,392.5
					L107.699,392.5z M87.908,412.057c-1.437,0.571,3.503-7.298,1.041-11.125c-2.811-4.367-11.277-6.854-3.211-5.205
					C98.304,398.295,90.851,408.106,87.908,412.057z"/>
				<path style="fill-rule:evenodd;clip-rule:evenodd;fill:#BA7427;" d="M96.257,398.87c0.438,0,0.794-0.382,0.794-0.851
					c0-0.469-0.356-0.851-0.794-0.851c-0.437,0-0.795,0.382-0.795,0.851C95.462,398.488,95.82,398.87,96.257,398.87z"/>
				<path style="fill-rule:evenodd;clip-rule:evenodd;fill:#BA7427;" d="M92.967,402.103c0.438,0,0.794-0.383,0.794-0.851
					c0-0.469-0.356-0.851-0.794-0.851c-0.437,0-0.793,0.382-0.793,0.851C92.173,401.721,92.53,402.103,92.967,402.103z"/>
				<path style="fill-rule:evenodd;clip-rule:evenodd;fill:#BA7427;" d="M101.192,405.393c0.438,0,0.794-0.382,0.794-0.851
					c0-0.468-0.356-0.85-0.794-0.85c-0.438,0-0.795,0.382-0.795,0.85C100.397,405.011,100.754,405.393,101.192,405.393z"/>
			</g>
		</g>
		<g>
			<path style="fill-rule:evenodd;clip-rule:evenodd;fill:#FFFFFF;" d="M350.718,60.349c-5.176-4.601-13.958-13.769-9.678-19.817
				c2.135-3.018,5.018-2.549,6.574-1.613c5.151,3.099,5.909,12.268,6.503,18.786C354.464,61.492,353.921,63.196,350.718,60.349z"/>
			<path style="fill-rule:evenodd;clip-rule:evenodd;fill:#FFFFFF;" d="M339.653,72.451c-6.885,0.753-19.574,1.118-21.189-6.113
				c-0.807-3.608,1.474-5.432,3.212-5.958c5.754-1.743,13.063,3.845,18.296,7.775C343.014,70.44,343.913,71.985,339.653,72.451z"/>
			<path style="fill-rule:evenodd;clip-rule:evenodd;fill:#FFFFFF;" d="M363.96,66.181c2.877-6.3,9.058-17.389,16.098-15.076
				c3.513,1.154,3.911,4.047,3.474,5.81c-1.447,5.835-9.988,9.254-16.044,11.738C363.968,70.097,362.181,70.08,363.96,66.181z"/>
			<path style="fill-rule:evenodd;clip-rule:evenodd;fill:#FFFFFF;" d="M130.937,90.044c-6.256-2.972-17.25-9.319-14.831-16.323
				c1.206-3.495,4.106-3.85,5.862-3.387c5.813,1.536,9.101,10.128,11.494,16.22C134.852,90.095,134.808,91.882,130.937,90.044z"/>
			<path style="fill-rule:evenodd;clip-rule:evenodd;fill:#FFFFFF;" d="M132.282,109.817c-5.368,4.377-15.817,11.587-21.106,6.398
				c-2.64-2.589-1.718-5.36-0.545-6.747c3.879-4.592,13.052-3.879,19.582-3.428C134.007,106.303,135.602,107.109,132.282,109.817z"
				/>
			<path style="fill-rule:evenodd;clip-rule:evenodd;fill:#FFFFFF;" d="M149.323,94.865c0.561-6.903,2.6-19.434,10.007-19.654
				c3.695-0.11,5.055,2.474,5.243,4.28c0.624,5.98-6.244,12.101-11.093,16.498C150.663,98.544,148.976,99.137,149.323,94.865z"/>
			<path style="fill-rule:evenodd;clip-rule:evenodd;fill:#FFFFFF;" d="M171.676,313.341c0.914,3.952-1.689,7.752-5.813,8.488
				c-4.124,0.736-8.207-1.871-9.121-5.823c-0.914-3.953,1.688-7.752,5.813-8.489C166.678,306.781,170.762,309.389,171.676,313.341z"
				/>
			<path style="fill-rule:evenodd;clip-rule:evenodd;fill:#FFFFFF;" d="M165.23,347.841c0.639,3.328-1.794,6.529-5.435,7.148
				c-3.641,0.62-7.11-1.576-7.749-4.904c-0.64-3.327,1.793-6.528,5.434-7.148C161.121,342.316,164.591,344.514,165.23,347.841z"/>
			<path style="fill-rule:evenodd;clip-rule:evenodd;fill:#FFFFFF;" d="M146.073,356.189c0.414,1.831-0.767,3.593-2.639,3.933
				c-1.873,0.342-3.726-0.866-4.141-2.697c-0.415-1.831,0.767-3.592,2.638-3.933C143.804,353.15,145.658,354.358,146.073,356.189z"
				/>
			<path style="fill-rule:evenodd;clip-rule:evenodd;fill:#FFFFFF;" d="M349.699,322.565c0.914,3.952-1.689,7.753-5.811,8.488
				c-4.124,0.736-8.208-1.871-9.122-5.823c-0.914-3.953,1.689-7.752,5.813-8.488C344.701,316.005,348.785,318.612,349.699,322.565z"
				/>
			<path style="fill-rule:evenodd;clip-rule:evenodd;fill:#FFFFFF;" d="M415.201,334.927c0.64,3.329-1.794,6.529-5.435,7.148
				c-3.64,0.62-7.108-1.575-7.749-4.903c-0.639-3.328,1.795-6.529,5.435-7.149C411.093,329.403,414.563,331.6,415.201,334.927z"/>
			<path style="fill-rule:evenodd;clip-rule:evenodd;fill:#FFFFFF;" d="M366.527,351.577c0.414,1.831-0.767,3.591-2.639,3.932
				c-1.873,0.341-3.728-0.866-4.142-2.697c-0.415-1.83,0.766-3.592,2.639-3.933C364.258,348.538,366.112,349.746,366.527,351.577z"
				/>
			<path style="fill-rule:evenodd;clip-rule:evenodd;fill:#FFFFFF;" d="M368.639,240.854c1.647-6.727,5.643-18.777,12.992-17.822
				c3.666,0.477,4.6,3.244,4.5,5.057c-0.33,6.003-8.081,10.96-13.565,14.534C369.379,244.699,367.62,245.017,368.639,240.854z"/>
			<path style="fill-rule:evenodd;clip-rule:evenodd;fill:#FFFFFF;" d="M353.443,250.827c-3.885-5.733-10.142-16.78-4.506-21.589
				c2.813-2.4,5.49-1.237,6.77,0.053c4.231,4.271,2.709,13.344,1.683,19.809C356.792,252.856,355.848,254.375,353.443,250.827z"/>
			<path style="fill-rule:evenodd;clip-rule:evenodd;fill:#FFFFFF;" d="M369.813,251.745c5.291-4.467,15.617-11.854,20.994-6.756
				c2.683,2.543,1.809,5.329,0.66,6.736c-3.802,4.658-12.984,4.102-19.522,3.762C368.147,255.29,366.538,254.511,369.813,251.745z"
				/>
			<path style="fill-rule:evenodd;clip-rule:evenodd;fill:#FFFFFF;" d="M97.555,214.732c-6.847,1.041-19.511,1.938-21.428-5.22
				c-0.958-3.571,1.245-5.488,2.96-6.087c5.676-1.983,13.212,3.294,18.605,7.002C100.828,212.583,101.792,214.088,97.555,214.732z"
				/>
			<path style="fill-rule:evenodd;clip-rule:evenodd;fill:#FFFFFF;" d="M111.044,231.021c-5.597,4.079-16.424,10.708-21.423,5.24
				c-2.494-2.729-1.423-5.446-0.177-6.767c4.124-4.375,13.243-3.163,19.739-2.357C112.958,227.605,114.508,228.498,111.044,231.021z
				"/>
			<path style="fill-rule:evenodd;clip-rule:evenodd;fill:#FFFFFF;" d="M122.651,216.32c-5.683-3.959-15.483-12.028-11.947-18.538
				c1.766-3.249,4.682-3.123,6.338-2.377c5.481,2.47,7.314,11.486,8.672,17.889C126.505,217.014,126.168,218.77,122.651,216.32z"/>
			<path style="fill-rule:evenodd;clip-rule:evenodd;fill:#FFFFFF;" d="M191.969,48.611c0.914,3.952-1.689,7.753-5.813,8.489
				c-4.125,0.735-8.208-1.872-9.122-5.824c-0.914-3.952,1.688-7.752,5.812-8.488C186.971,42.051,191.055,44.658,191.969,48.611z"/>
			<path style="fill-rule:evenodd;clip-rule:evenodd;fill:#FFFFFF;" d="M206.029,62.865c0.414,1.831-0.767,3.591-2.639,3.932
				c-1.872,0.341-3.727-0.867-4.142-2.698c-0.414-1.83,0.767-3.591,2.639-3.933C203.76,59.826,205.614,61.034,206.029,62.865z"/>
			<g>
				<path style="fill-rule:evenodd;clip-rule:evenodd;fill:#FFFFFF;" d="M344.47,290.86c0.907,4.992-2.705,9.792-8.069,10.723
					c-5.363,0.93-10.447-2.364-11.355-7.356c-0.908-4.992,2.704-9.794,8.069-10.723C338.478,282.574,343.563,285.867,344.47,290.86z
					"/>
				<path style="fill-rule:evenodd;clip-rule:evenodd;fill:#AED2C8;" d="M340.374,288.715c0.242,1.326-0.72,2.603-2.145,2.851
					c-1.426,0.246-2.778-0.628-3.019-1.955c-0.241-1.327,0.719-2.605,2.146-2.852C338.782,286.512,340.134,287.388,340.374,288.715z
					"/>
				<path style="fill-rule:evenodd;clip-rule:evenodd;fill:#AED2C8;" d="M341.306,293.383c0.12,0.664-0.359,1.301-1.072,1.426
					c-0.713,0.124-1.389-0.314-1.51-0.978c-0.12-0.663,0.359-1.302,1.073-1.425C340.509,292.282,341.185,292.72,341.306,293.383z"/>
			</g>
			<g>
				<path style="fill-rule:evenodd;clip-rule:evenodd;fill:#FFFFFF;" d="M141.541,336.059c0.908,4.992-2.705,9.792-8.069,10.723
					c-5.364,0.929-10.448-2.365-11.355-7.358c-0.908-4.991,2.705-9.792,8.069-10.722
					C135.549,327.772,140.633,331.066,141.541,336.059z"/>
				<path style="fill-rule:evenodd;clip-rule:evenodd;fill:#AED2C8;" d="M137.446,333.912c0.241,1.327-0.719,2.603-2.145,2.85
					c-1.426,0.248-2.777-0.628-3.019-1.955c-0.242-1.326,0.719-2.603,2.145-2.85C135.852,331.709,137.205,332.585,137.446,333.912z"
					/>
				<path style="fill-rule:evenodd;clip-rule:evenodd;fill:#AED2C8;" d="M138.377,338.581c0.12,0.663-0.359,1.301-1.072,1.425
					c-0.713,0.123-1.389-0.313-1.51-0.978c-0.12-0.663,0.361-1.302,1.074-1.425C137.58,337.479,138.256,337.918,138.377,338.581z"/>
			</g>
		</g>
	</g>
</g>
</svg>
